<mxfile host="app.diagrams.net" agent="Mozilla/5.0 (Windows NT 10.0; Win64; x64) AppleWebKit/537.36 (KHTML, like Gecko) Chrome/136.0.0.0 Safari/537.36" version="27.0.6">
  <diagram name="Page-1" id="wfFr6315du9r01bvQP6j">
    <mxGraphModel dx="1102" dy="517" grid="1" gridSize="10" guides="1" tooltips="1" connect="1" arrows="1" fold="1" page="1" pageScale="1" pageWidth="850" pageHeight="1100" math="0" shadow="0">
      <root>
        <mxCell id="0" />
        <mxCell id="1" parent="0" />
        <mxCell id="13hCPSlmOAWzHh8wxKm_-52" value="Posjetitelj" style="shape=rectangle;rounded=1;whiteSpace=wrap;html=1;fillColor=#FFF2CC;strokeColor=#D6B656;align=center;verticalAlign=middle;fontSize=12;" vertex="1" parent="1">
          <mxGeometry x="140" y="830" width="120" height="60" as="geometry" />
        </mxCell>
        <mxCell id="13hCPSlmOAWzHh8wxKm_-53" value="P1: UPRAVLJANJE REZERVACIJAMA" style="shape=rectangle;rounded=1;whiteSpace=wrap;html=1;fillColor=none;strokeColor=#000000;align=center;verticalAlign=top;spacingTop=10;fontSize=14;fontStyle=1;dashed=0;perimeterSpacing=10;" vertex="1" parent="1">
          <mxGeometry x="570" y="590" width="320" height="550" as="geometry" />
        </mxCell>
        <mxCell id="13hCPSlmOAWzHh8wxKm_-54" value="P1.1 Kreiranje rezervacije" style="shape=rectangle;rounded=1;whiteSpace=wrap;html=1;fillColor=#DAE8FC;strokeColor=#6C8EBF;align=center;verticalAlign=middle;fontSize=12;" vertex="1" parent="13hCPSlmOAWzHh8wxKm_-53">
          <mxGeometry x="35" y="60" width="250" height="60" as="geometry" />
        </mxCell>
        <mxCell id="13hCPSlmOAWzHh8wxKm_-55" value="P1.2 Ažuriranje rezervacije" style="shape=rectangle;rounded=1;whiteSpace=wrap;html=1;fillColor=#FFF2CC;strokeColor=#D6B656;align=center;verticalAlign=middle;fontSize=12;" vertex="1" parent="13hCPSlmOAWzHh8wxKm_-53">
          <mxGeometry x="35" y="150" width="250" height="60" as="geometry" />
        </mxCell>
        <mxCell id="13hCPSlmOAWzHh8wxKm_-56" value="P1.3 Otkazivanje rezervacije" style="shape=rectangle;rounded=1;whiteSpace=wrap;html=1;fillColor=#F8CECC;strokeColor=#B85450;align=center;verticalAlign=middle;fontSize=12;" vertex="1" parent="13hCPSlmOAWzHh8wxKm_-53">
          <mxGeometry x="35" y="240" width="250" height="60" as="geometry" />
        </mxCell>
        <mxCell id="13hCPSlmOAWzHh8wxKm_-57" value="P1.4 Pregled termina i događaja" style="shape=rectangle;rounded=1;whiteSpace=wrap;html=1;fillColor=#D5E8D4;strokeColor=#82B366;align=center;verticalAlign=middle;fontSize=12;" vertex="1" parent="13hCPSlmOAWzHh8wxKm_-53">
          <mxGeometry x="35" y="330" width="250" height="60" as="geometry" />
        </mxCell>
        <mxCell id="13hCPSlmOAWzHh8wxKm_-58" value="P1.5 Slanje potvrda i podsjetnika" style="shape=rectangle;rounded=1;whiteSpace=wrap;html=1;fillColor=#E1D5E7;strokeColor=#9673A6;align=center;verticalAlign=middle;fontSize=12;" vertex="1" parent="13hCPSlmOAWzHh8wxKm_-53">
          <mxGeometry x="35" y="420" width="250" height="60" as="geometry" />
        </mxCell>
        <mxCell id="13hCPSlmOAWzHh8wxKm_-71" value="" style="endArrow=none;html=1;rounded=0;exitX=0.5;exitY=0;exitDx=0;exitDy=0;" edge="1" parent="1" source="13hCPSlmOAWzHh8wxKm_-52">
          <mxGeometry width="50" height="50" relative="1" as="geometry">
            <mxPoint x="180" y="780" as="sourcePoint" />
            <mxPoint x="200" y="680" as="targetPoint" />
          </mxGeometry>
        </mxCell>
        <mxCell id="13hCPSlmOAWzHh8wxKm_-72" value="" style="endArrow=classic;html=1;rounded=0;entryX=0.018;entryY=0.17;entryDx=0;entryDy=0;entryPerimeter=0;" edge="1" parent="1" target="13hCPSlmOAWzHh8wxKm_-53">
          <mxGeometry width="50" height="50" relative="1" as="geometry">
            <mxPoint x="200" y="680" as="sourcePoint" />
            <mxPoint x="310" y="660" as="targetPoint" />
          </mxGeometry>
        </mxCell>
        <mxCell id="13hCPSlmOAWzHh8wxKm_-73" value="" style="endArrow=none;html=1;rounded=0;" edge="1" parent="1">
          <mxGeometry width="50" height="50" relative="1" as="geometry">
            <mxPoint x="220" y="690" as="sourcePoint" />
            <mxPoint x="570" y="690" as="targetPoint" />
          </mxGeometry>
        </mxCell>
        <mxCell id="13hCPSlmOAWzHh8wxKm_-74" value="" style="endArrow=classic;html=1;rounded=0;entryX=0.675;entryY=-0.017;entryDx=0;entryDy=0;entryPerimeter=0;" edge="1" parent="1" target="13hCPSlmOAWzHh8wxKm_-52">
          <mxGeometry width="50" height="50" relative="1" as="geometry">
            <mxPoint x="220" y="690" as="sourcePoint" />
            <mxPoint x="270" y="720" as="targetPoint" />
          </mxGeometry>
        </mxCell>
        <mxCell id="13hCPSlmOAWzHh8wxKm_-75" value="" style="endArrow=none;html=1;rounded=0;entryX=0.021;entryY=0.353;entryDx=0;entryDy=0;entryPerimeter=0;" edge="1" parent="1" target="13hCPSlmOAWzHh8wxKm_-53">
          <mxGeometry width="50" height="50" relative="1" as="geometry">
            <mxPoint x="250" y="780" as="sourcePoint" />
            <mxPoint x="560" y="770" as="targetPoint" />
          </mxGeometry>
        </mxCell>
        <mxCell id="13hCPSlmOAWzHh8wxKm_-76" value="" style="endArrow=classic;html=1;rounded=0;entryX=0.908;entryY=-0.017;entryDx=0;entryDy=0;entryPerimeter=0;" edge="1" parent="1" target="13hCPSlmOAWzHh8wxKm_-52">
          <mxGeometry width="50" height="50" relative="1" as="geometry">
            <mxPoint x="250" y="780" as="sourcePoint" />
            <mxPoint x="300" y="800" as="targetPoint" />
          </mxGeometry>
        </mxCell>
        <mxCell id="13hCPSlmOAWzHh8wxKm_-77" value="" style="endArrow=none;html=1;rounded=0;" edge="1" parent="1">
          <mxGeometry width="50" height="50" relative="1" as="geometry">
            <mxPoint x="230" y="830" as="sourcePoint" />
            <mxPoint x="230" y="760" as="targetPoint" />
          </mxGeometry>
        </mxCell>
        <mxCell id="13hCPSlmOAWzHh8wxKm_-78" value="" style="endArrow=classic;html=1;rounded=0;entryX=0.026;entryY=0.314;entryDx=0;entryDy=0;entryPerimeter=0;" edge="1" parent="1" target="13hCPSlmOAWzHh8wxKm_-53">
          <mxGeometry width="50" height="50" relative="1" as="geometry">
            <mxPoint x="230" y="760" as="sourcePoint" />
            <mxPoint x="310" y="740" as="targetPoint" />
          </mxGeometry>
        </mxCell>
        <mxCell id="13hCPSlmOAWzHh8wxKm_-79" value="" style="endArrow=classic;html=1;rounded=0;entryX=0.026;entryY=0.467;entryDx=0;entryDy=0;entryPerimeter=0;exitX=1;exitY=0.25;exitDx=0;exitDy=0;" edge="1" parent="1" source="13hCPSlmOAWzHh8wxKm_-52" target="13hCPSlmOAWzHh8wxKm_-53">
          <mxGeometry width="50" height="50" relative="1" as="geometry">
            <mxPoint x="470" y="890" as="sourcePoint" />
            <mxPoint x="520" y="840" as="targetPoint" />
          </mxGeometry>
        </mxCell>
        <mxCell id="13hCPSlmOAWzHh8wxKm_-80" value="" style="endArrow=classic;html=1;rounded=0;entryX=1;entryY=0.5;entryDx=0;entryDy=0;exitX=0.026;exitY=0.493;exitDx=0;exitDy=0;exitPerimeter=0;" edge="1" parent="1" source="13hCPSlmOAWzHh8wxKm_-53" target="13hCPSlmOAWzHh8wxKm_-52">
          <mxGeometry width="50" height="50" relative="1" as="geometry">
            <mxPoint x="430" y="930" as="sourcePoint" />
            <mxPoint x="480" y="880" as="targetPoint" />
          </mxGeometry>
        </mxCell>
        <mxCell id="13hCPSlmOAWzHh8wxKm_-81" value="" style="endArrow=none;html=1;rounded=0;" edge="1" parent="1">
          <mxGeometry width="50" height="50" relative="1" as="geometry">
            <mxPoint x="230" y="940" as="sourcePoint" />
            <mxPoint x="570" y="940" as="targetPoint" />
          </mxGeometry>
        </mxCell>
        <mxCell id="13hCPSlmOAWzHh8wxKm_-82" value="" style="endArrow=classic;html=1;rounded=0;entryX=0.75;entryY=1;entryDx=0;entryDy=0;" edge="1" parent="1" target="13hCPSlmOAWzHh8wxKm_-52">
          <mxGeometry width="50" height="50" relative="1" as="geometry">
            <mxPoint x="230" y="940" as="sourcePoint" />
            <mxPoint x="260" y="900" as="targetPoint" />
          </mxGeometry>
        </mxCell>
        <mxCell id="13hCPSlmOAWzHh8wxKm_-83" value="" style="endArrow=none;html=1;rounded=0;" edge="1" parent="1">
          <mxGeometry width="50" height="50" relative="1" as="geometry">
            <mxPoint x="250" y="920" as="sourcePoint" />
            <mxPoint x="250" y="890" as="targetPoint" />
          </mxGeometry>
        </mxCell>
        <mxCell id="13hCPSlmOAWzHh8wxKm_-84" value="" style="endArrow=classic;html=1;rounded=0;entryX=0.026;entryY=0.596;entryDx=0;entryDy=0;entryPerimeter=0;" edge="1" parent="1" target="13hCPSlmOAWzHh8wxKm_-53">
          <mxGeometry width="50" height="50" relative="1" as="geometry">
            <mxPoint x="250" y="920" as="sourcePoint" />
            <mxPoint x="330" y="880" as="targetPoint" />
          </mxGeometry>
        </mxCell>
        <mxCell id="13hCPSlmOAWzHh8wxKm_-85" value="" style="endArrow=none;html=1;rounded=0;" edge="1" parent="1" target="13hCPSlmOAWzHh8wxKm_-52">
          <mxGeometry width="50" height="50" relative="1" as="geometry">
            <mxPoint x="200" y="1020" as="sourcePoint" />
            <mxPoint x="260" y="1000" as="targetPoint" />
          </mxGeometry>
        </mxCell>
        <mxCell id="13hCPSlmOAWzHh8wxKm_-87" value="" style="endArrow=classic;html=1;rounded=0;entryX=0.026;entryY=0.77;entryDx=0;entryDy=0;entryPerimeter=0;" edge="1" parent="1" target="13hCPSlmOAWzHh8wxKm_-53">
          <mxGeometry width="50" height="50" relative="1" as="geometry">
            <mxPoint x="200" y="1020" as="sourcePoint" />
            <mxPoint x="310" y="990" as="targetPoint" />
          </mxGeometry>
        </mxCell>
        <mxCell id="13hCPSlmOAWzHh8wxKm_-88" value="" style="endArrow=none;html=1;rounded=0;" edge="1" parent="1">
          <mxGeometry width="50" height="50" relative="1" as="geometry">
            <mxPoint x="170" y="1040" as="sourcePoint" />
            <mxPoint x="570" y="1040" as="targetPoint" />
          </mxGeometry>
        </mxCell>
        <mxCell id="13hCPSlmOAWzHh8wxKm_-89" value="" style="endArrow=classic;html=1;rounded=0;entryX=0.25;entryY=1;entryDx=0;entryDy=0;" edge="1" parent="1" target="13hCPSlmOAWzHh8wxKm_-52">
          <mxGeometry width="50" height="50" relative="1" as="geometry">
            <mxPoint x="170" y="1040" as="sourcePoint" />
            <mxPoint x="200" y="940" as="targetPoint" />
          </mxGeometry>
        </mxCell>
        <mxCell id="13hCPSlmOAWzHh8wxKm_-90" value="Zahtjev za novu rezervaciju, podaci o posjetitelju" style="text;whiteSpace=wrap;html=1;" vertex="1" parent="1">
          <mxGeometry x="250" y="630" width="290" height="40" as="geometry" />
        </mxCell>
        <mxCell id="13hCPSlmOAWzHh8wxKm_-91" value="Potvrda o kreiranoj rezervaciji" style="text;whiteSpace=wrap;html=1;" vertex="1" parent="1">
          <mxGeometry x="280" y="700" width="190" height="40" as="geometry" />
        </mxCell>
        <mxCell id="13hCPSlmOAWzHh8wxKm_-92" value="Zahtjev za promjenu postojeće rezervacije" style="text;whiteSpace=wrap;html=1;" vertex="1" parent="1">
          <mxGeometry x="270" y="730" width="260" height="40" as="geometry" />
        </mxCell>
        <mxCell id="13hCPSlmOAWzHh8wxKm_-94" value="Obavijest/potvrda o promjeni rezervacije" style="text;whiteSpace=wrap;html=1;" vertex="1" parent="1">
          <mxGeometry x="275" y="780" width="250" height="40" as="geometry" />
        </mxCell>
        <mxCell id="13hCPSlmOAWzHh8wxKm_-95" value="Zahtjev za otkazivanje rezervacije" style="text;whiteSpace=wrap;html=1;" vertex="1" parent="1">
          <mxGeometry x="290" y="820" width="210" height="40" as="geometry" />
        </mxCell>
        <mxCell id="13hCPSlmOAWzHh8wxKm_-96" value="Potvrda o otkazivanju rezervacije" style="text;whiteSpace=wrap;html=1;" vertex="1" parent="1">
          <mxGeometry x="280" y="860" width="210" height="40" as="geometry" />
        </mxCell>
        <mxCell id="13hCPSlmOAWzHh8wxKm_-97" value="Zahtjev za pregled dostupnih termina i događaja" style="text;whiteSpace=wrap;html=1;" vertex="1" parent="1">
          <mxGeometry x="280" y="890" width="290" height="40" as="geometry" />
        </mxCell>
        <mxCell id="13hCPSlmOAWzHh8wxKm_-98" value="Prikaz traženih termina, događaja i dostupnosti" style="text;whiteSpace=wrap;html=1;" vertex="1" parent="1">
          <mxGeometry x="270" y="940" width="280" height="40" as="geometry" />
        </mxCell>
        <mxCell id="13hCPSlmOAWzHh8wxKm_-99" value="Zahtjev za slanje podsjetnika na rezervirani termin" style="text;whiteSpace=wrap;html=1;" vertex="1" parent="1">
          <mxGeometry x="260" y="990" width="300" height="40" as="geometry" />
        </mxCell>
        <mxCell id="13hCPSlmOAWzHh8wxKm_-100" value="Poslani podsjetnik o nadolazećem terminu" style="text;whiteSpace=wrap;html=1;" vertex="1" parent="1">
          <mxGeometry x="255" y="1040" width="260" height="40" as="geometry" />
        </mxCell>
      </root>
    </mxGraphModel>
  </diagram>
</mxfile>
